<svg width="28" height="31" viewBox="0 0 28 31" fill="none" xmlns="http://www.w3.org/2000/svg">
<path d="M26.4481 12.0925C24.611 11.5602 22.1352 13.8034 20.9017 12.3776C19.4057 10.6477 22.8876 7.12124 22.5289 3.89896C22.2402 1.2565 19.4582 0.0208168 16.7025 0.00180635C14.5376 -0.0319098 12.3885 0.406678 10.3824 1.2916C8.37631 2.17653 6.55403 3.48979 5.02346 5.15365C-0.785441 11.4176 -2.03645 20.362 3.82493 26.5215C9.25765 32.2246 18.3559 30.5422 23.6574 25.1907C25.2966 23.4413 26.5576 21.318 27.3492 18.9743C28.294 16.2178 28.3815 12.6628 26.4481 12.0925ZM6.47568 7.98622C6.94956 7.78408 7.47739 7.79122 7.9465 8.0061C8.4156 8.22099 8.78881 8.6266 8.98646 9.13635C9.06517 9.68268 8.94335 10.2408 8.64722 10.6905C8.35109 11.1402 7.90431 11.4457 7.40301 11.5412C6.92932 11.7459 6.40056 11.74 5.93083 11.5248C5.4611 11.3096 5.08807 10.9024 4.89223 10.391C4.81583 9.84507 4.93856 9.28825 5.2343 8.8391C5.53004 8.38996 5.97543 8.08395 6.47568 7.98622ZM2.68765 17.7291C2.60913 17.1814 2.73213 16.6221 3.03007 16.1721C3.328 15.7221 3.77693 15.4175 4.27985 15.3243C4.75249 15.1225 5.27907 15.1299 5.74675 15.3449C6.21443 15.5599 6.58601 15.9653 6.78187 16.4744C6.85091 17.0159 6.72471 17.5655 6.42965 18.0083C6.13458 18.4511 5.69346 18.7529 5.19842 18.8507C4.7276 19.0521 4.20332 19.0479 3.73533 18.8388C3.26734 18.6297 2.89192 18.2321 2.68765 17.7291ZM8.81149 25.647C8.3378 25.8516 7.80904 25.8458 7.33932 25.6306C6.86959 25.4154 6.49655 25.0082 6.30071 24.4968C6.22409 23.9522 6.34563 23.3966 6.63958 22.9477C6.93352 22.4988 7.37677 22.1919 7.87542 22.092C8.3493 21.8899 8.87713 21.897 9.34623 22.1119C9.81533 22.3268 10.1885 22.7324 10.3862 23.2421C10.4247 23.5168 10.4128 23.7971 10.3513 24.0668C10.2899 24.3365 10.18 24.5903 10.028 24.8138C9.87596 25.0372 9.68485 25.2258 9.46558 25.3688C9.24632 25.5118 9.00322 25.6063 8.75025 25.647H8.81149ZM11.3748 5.7905C11.2984 5.24453 11.4211 4.68771 11.7168 4.23856C12.0126 3.78942 12.4579 3.48341 12.9582 3.38568C13.4323 3.18604 13.9592 3.19441 14.4277 3.40902C14.8962 3.62362 15.2696 4.02766 15.469 4.53581C15.5475 5.08354 15.4245 5.64283 15.1266 6.09283C14.8286 6.54282 14.3797 6.84736 13.8768 6.94064C13.4043 7.14495 12.8768 7.1388 12.4085 6.92352C11.9402 6.70825 11.5688 6.30119 11.3748 5.7905ZM16.4663 26.8827C15.9926 27.0873 15.4638 27.0814 14.9941 26.8663C14.5244 26.6511 14.1514 26.2439 13.9555 25.7325C13.8791 25.1865 14.0018 24.6297 14.2976 24.1806C14.5933 23.7314 15.0387 23.4254 15.539 23.3277C16.013 23.1281 16.5399 23.1364 17.0084 23.351C17.4769 23.5656 17.8503 23.9697 18.0497 24.4778C18.1277 25.0298 18.0012 25.5928 17.6978 26.0436C17.3945 26.4943 16.939 26.796 16.4313 26.8827H16.4663ZM20.8405 16.9402C20.5703 17.6881 20.0388 18.2895 19.362 18.6131C18.9759 18.798 18.5591 18.8951 18.1372 18.8982C17.6781 18.9147 17.2241 18.7895 16.8277 18.5371C16.4314 18.2848 16.1089 17.9157 15.8976 17.4725C15.767 17.1774 15.6941 16.8561 15.6835 16.5289C15.673 16.2017 15.725 15.8756 15.8364 15.5714C16.1065 14.8235 16.638 14.2221 17.3149 13.8985C17.9202 13.5574 18.624 13.4857 19.2772 13.6986C19.9304 13.9115 20.4816 14.3923 20.8142 15.0391C20.9338 15.3408 20.9955 15.6659 20.9955 15.9944C20.9955 16.3229 20.9338 16.648 20.8142 16.9497L20.8405 16.9402Z" fill="#008236"/>
</svg>
