<svg width="23" height="39" viewBox="0 0 23 39" fill="none" xmlns="http://www.w3.org/2000/svg">
<path d="M14.9701 24.3479C14.9701 24.3479 13.2372 26.6965 11.0231 24.3479C8.87571 22.1373 7.31358 24.3479 7.31358 24.3479L2.14084 35.1684C1.99088 35.7575 2.32101 36.3632 2.87608 36.5212H20.0564C20.6115 36.3632 20.9416 35.7586 20.7927 35.1684L14.9701 24.3479ZM22.8922 34.6147L14.5827 19.7732V19.7455L14.5681 11.0482H15.1419C16.0022 11.0482 16.702 10.3066 16.702 9.39143C16.702 8.47737 16.0022 7.73574 15.1419 7.73574H6.81578C5.95453 7.73574 5.25573 8.47737 5.25573 9.39143C5.25573 10.3066 5.95453 11.0482 6.81578 11.0482H7.31775L7.30108 19.7477L0.106943 34.6147C-0.338785 36.382 0.649524 38.1979 2.31372 38.671H20.6854C22.3517 38.1979 23.34 36.382 22.8922 34.6147ZM20.4074 37.5635L2.59073 37.5425C1.48162 37.2264 0.823441 36.015 1.12025 34.839L8.355 19.7897L8.37687 9.94406H6.81682C6.53043 9.94406 6.29715 9.69648 6.29715 9.39143C6.29715 9.08637 6.53043 8.8399 6.81682 8.8399H15.143C15.4294 8.8399 15.6616 9.08748 15.6616 9.39143C15.6616 9.69648 15.4294 9.94406 15.143 9.94406H13.5829L13.609 19.7533L21.8768 34.8578C22.1747 36.0371 21.5154 37.2485 20.4074 37.5635ZM12 6.07895C12 6.68906 12.4665 7.18421 13.0414 7.18421C13.6163 7.18421 14.0828 6.68906 14.0828 6.07895C14.0828 5.46884 13.6173 4.97369 13.0414 4.97369C12.4655 4.97369 12 5.46774 12 6.07895ZM13.0414 3.31579C13.9037 3.31579 14.6035 2.57416 14.6035 1.6579C14.6035 0.741632 13.9037 0 13.0414 0C12.1791 0 11.4793 0.741632 11.4793 1.6579C11.4793 2.57416 12.1791 3.31579 13.0414 3.31579ZM8.87571 6.07895C9.45162 6.07895 9.91713 5.58379 9.91713 4.97369C9.91713 4.36358 9.45162 3.86842 8.87571 3.86842C8.29981 3.86842 7.83429 4.36358 7.83429 4.97369C7.83429 5.58379 8.29981 6.07895 8.87571 6.07895Z" fill="#E7000B"/>
</svg>
