<svg width="34" height="34" viewBox="0 0 34 34" fill="none" xmlns="http://www.w3.org/2000/svg">
<path d="M31.7183 2.54076C31.7062 2.48203 31.6776 2.42798 31.6358 2.38493C31.5941 2.34188 31.5409 2.31163 31.4826 2.29772C27.5931 1.34678 18.6064 4.73549 13.7375 9.60241C12.8691 10.4638 12.0774 11.3992 11.3714 12.3981C9.86998 12.2653 8.36853 12.3762 7.08888 12.934C3.47838 14.5231 2.42717 18.6695 2.13431 20.4532C2.1177 20.5508 2.12397 20.651 2.15262 20.7458C2.18127 20.8406 2.23152 20.9274 2.29942 20.9995C2.36732 21.0716 2.45103 21.1269 2.54394 21.1612C2.63686 21.1955 2.73645 21.2077 2.8349 21.1969L8.63283 20.5574C8.63697 20.9946 8.66335 21.4312 8.71185 21.8656C8.74103 22.1673 8.87495 22.4493 9.09037 22.6625L11.3356 24.9024C11.549 25.1175 11.8308 25.2514 12.1324 25.2809C12.5645 25.3292 12.9986 25.3556 13.4333 25.3599L12.7972 31.1506C12.7866 31.249 12.7989 31.3485 12.8332 31.4414C12.8675 31.5342 12.9229 31.6179 12.9949 31.6857C13.067 31.7536 13.1538 31.8039 13.2485 31.8326C13.3432 31.8613 13.4433 31.8676 13.5409 31.8512C15.3213 31.5656 19.475 30.5144 21.0548 26.9039C21.6126 25.6242 21.7268 24.1301 21.598 22.636C22.5993 21.9299 23.5372 21.1381 24.401 20.2692C29.2852 15.4096 32.6546 6.62342 31.7183 2.54076ZM19.5281 14.472C19.0821 14.0263 18.7783 13.4583 18.6552 12.84C18.532 12.2216 18.595 11.5806 18.8362 10.998C19.0774 10.4155 19.4859 9.91751 20.0102 9.56717C20.5344 9.21683 21.1508 9.02983 21.7813 9.02983C22.4118 9.02983 23.0281 9.21683 23.5524 9.56717C24.0766 9.91751 24.4851 10.4155 24.7263 10.998C24.9675 11.5806 25.0305 12.2216 24.9074 12.84C24.7842 13.4583 24.4804 14.0263 24.0344 14.472C23.7387 14.7681 23.3875 15.0031 23.0009 15.1634C22.6142 15.3237 22.1998 15.4062 21.7813 15.4062C21.3627 15.4062 20.9483 15.3237 20.5617 15.1634C20.1751 15.0031 19.8238 14.7681 19.5281 14.472Z" fill="#008236"/>
<path d="M11.1828 26.5247C10.8189 26.8892 10.2352 27.0313 9.53262 27.1529C7.95414 27.4218 6.56027 26.0578 6.84383 24.4621C6.95207 23.8571 7.27215 23.0091 7.47137 22.8099C7.51491 22.7672 7.54389 22.7118 7.5542 22.6517C7.56451 22.5916 7.55561 22.5298 7.52878 22.475C7.50195 22.4202 7.45854 22.3753 7.40472 22.3466C7.3509 22.3179 7.28941 22.3069 7.22898 22.3152C6.34629 22.4232 5.52509 22.8234 4.89613 23.452C3.33492 25.0146 3.1875 30.8125 3.1875 30.8125C3.1875 30.8125 8.98875 30.6651 10.55 29.1025C11.1806 28.4741 11.5813 27.6516 11.6875 26.7677C11.7121 26.4901 11.3741 26.3248 11.1828 26.5247Z" fill="#008236"/>
</svg>
