<svg width="26" height="26" viewBox="0 0 26 26" fill="none" xmlns="http://www.w3.org/2000/svg">
<path d="M19.4645 8.55595C19.1544 9.0041 18.819 9.43294 18.4653 9.84646C17.1526 11.3778 15.5683 12.6653 13.7861 13.6387C13.7832 13.7515 13.7832 13.8643 13.7832 13.9741C13.7832 15.7122 14.0869 17.4375 14.6696 19.0634C14.9733 18.9318 15.2705 18.7908 15.5683 18.6434C19.4452 16.7114 22.6365 13.711 24.8074 9.95919C24.9978 9.62733 25.1799 9.29197 25.352 8.95067C25.0794 8.11476 24.713 7.29074 24.2559 6.49835C23.5916 5.34937 22.7809 4.3408 21.8604 3.4856C21.4217 5.06398 20.7573 6.54882 19.9027 7.90158C19.7618 8.12416 19.6178 8.34328 19.4645 8.55595Z" fill="#E7000B"/>
<path d="M18.1893 7.53219H18.1928C18.309 7.36598 18.4183 7.20028 18.5247 7.03113C19.42 5.6155 20.0877 4.04012 20.4661 2.3554C20.1218 2.11409 19.7682 1.88852 19.4051 1.68519C17.4504 0.582625 15.2335 -0.00298465 12.9879 1.14391e-05C10.7829 1.14391e-05 8.55307 0.557894 6.50187 1.7411C5.91626 2.0794 5.37117 2.45528 4.86072 2.8659C9.23913 3.00982 13.4637 4.35664 17.1215 6.78037C17.485 7.02169 17.8421 7.27199 18.1893 7.53219Z" fill="#E7000B"/>
<path d="M5.63425 9.81821C6.1764 9.86523 6.71503 9.94339 7.25022 10.0467C9.24506 10.432 11.1652 11.1804 12.9033 12.2641C14.538 11.3872 15.9942 10.2159 17.1937 8.82554C16.8777 8.58758 16.5517 8.35911 16.2198 8.13948C12.6115 5.74647 8.41514 4.4812 4.08121 4.4812C3.77409 4.4812 3.46397 4.48816 3.15725 4.50349C2.59637 5.15492 2.10516 5.85331 1.6882 6.59228C1.05556 7.71658 0.592083 8.92593 0.313599 10.1783C1.56008 9.88402 2.82483 9.74305 4.08116 9.74305C4.60101 9.74305 5.11735 9.76824 5.63425 9.81821Z" fill="#E7000B"/>
<path d="M5.31177 12.5209C5.33355 12.1578 5.36519 11.7942 5.40226 11.4312C4.96402 11.3901 4.52232 11.3713 4.08114 11.3713C2.73427 11.3713 1.375 11.5534 0.0474297 11.9259C0.015793 12.2865 0 12.646 0 13.0096C0.00299609 15.2146 0.560879 17.4444 1.74454 19.4956C2.95049 21.5814 4.64161 23.2033 6.59587 24.3088C7.04646 24.566 7.51339 24.7916 7.99216 24.9884C6.19816 21.5874 5.2648 17.8262 5.2648 13.9929C5.2648 13.5013 5.28064 13.0096 5.31177 12.5209Z" fill="#E7000B"/>
<path d="M13.7862 21.1711C13.5483 20.6794 13.3386 20.1783 13.1565 19.6679C12.4962 17.8481 12.1549 15.922 12.1549 13.9742C12.1549 13.8896 12.1549 13.8051 12.1579 13.7205C10.5825 12.715 8.83505 12.02 7.01876 11.6633C6.98418 11.9794 6.95594 12.2984 6.93715 12.6214C6.90892 13.0785 6.89313 13.536 6.89313 13.993C6.89313 17.8422 7.90169 21.6064 9.83717 24.9639C9.98108 25.2141 10.1314 25.4615 10.2878 25.7058H10.2913C11.184 25.8972 12.0952 25.9941 13.0132 25.9941C14.2562 25.9941 15.5026 25.8156 16.7238 25.4491C15.7816 24.4563 14.9763 23.3632 14.316 22.1949C14.1275 21.8601 13.9489 21.5188 13.7862 21.1711Z" fill="#E7000B"/>
<path d="M25.8907 11.3149C23.5763 15.0924 20.2692 18.124 16.295 20.0995C15.9661 20.2628 15.637 20.4191 15.3022 20.5635C15.4368 20.8449 15.5807 21.121 15.734 21.393C16.4419 22.6459 17.3312 23.8013 18.3961 24.8222C18.7691 24.6501 19.1386 24.4626 19.4987 24.2529C21.5875 23.0465 23.2064 21.3559 24.3124 19.4016C25.4148 17.4473 26 15.2299 26 12.9843C25.997 12.4268 25.9629 11.8699 25.8907 11.3149Z" fill="#E7000B"/>
</svg>
