<svg width="29" height="23" viewBox="0 0 29 23" fill="none" xmlns="http://www.w3.org/2000/svg">
<path d="M13.5938 19.8242V2.03906C13.5938 2.03906 11.1578 0 7.70312 0C4.2485 0 1.8125 1.8125 1.8125 1.8125V19.8242C1.8125 19.8242 4.2485 18.0679 7.70312 18.0679C11.1578 18.0679 13.5938 19.8242 13.5938 19.8242ZM26.2812 19.8242V2.03906C26.2812 2.03906 23.8452 0 20.3906 0C16.936 0 14.5 1.8125 14.5 1.8125V19.8242C14.5 19.8242 16.936 18.0679 20.3906 18.0679C23.8452 18.0679 26.2812 19.8242 26.2812 19.8242ZM28.0938 3.625H27.1875V20.8438H16.3125V21.75H11.7812V20.8438H0.90625V3.625H0V21.75H10.875V22.6562H17.2749L17.2188 21.75H28.0938V3.625Z" fill="#E7000B"/>
</svg>
