<svg width="31" height="31" viewBox="0 0 31 31" fill="none" xmlns="http://www.w3.org/2000/svg">
<g clip-path="url(#clip0_56_240)">
<path d="M28.7861 7.13394V31H2.89355V0.00012207H21.6523L24.975 3.32287L28.7861 7.13394Z" fill="#B12A27"/>
<path d="M14.6318 2.07648H2.21387V7.63274H14.6318V2.07648Z" fill="#F2F2F2"/>
<path d="M6.66828 3.89812C6.61349 3.76576 6.54047 3.64709 6.44008 3.5467C6.33969 3.44632 6.21642 3.36415 6.07492 3.30936C5.92888 3.25002 5.76456 3.22266 5.58201 3.22266H4.21729V6.74618H4.90649V5.41796H5.58201C5.76456 5.41796 5.92888 5.3906 6.07492 5.33126C6.21642 5.27647 6.33963 5.19437 6.44008 5.09392C6.54053 4.99353 6.61355 4.8794 6.66828 4.7425C6.71848 4.61015 6.7459 4.46865 6.7459 4.32261C6.74584 4.17197 6.71848 4.03047 6.66828 3.89812ZM5.92428 4.66942C5.83298 4.75613 5.70522 4.80178 5.55004 4.80178H4.90649V3.83418H5.55004C5.70522 3.83418 5.83304 3.87983 5.92428 3.97108C6.01099 4.05778 6.05664 4.17645 6.05664 4.32249C6.0567 4.46405 6.01105 4.58272 5.92428 4.66942Z" fill="#B12A27"/>
<path d="M9.96349 4.58708C9.95895 4.46387 9.95435 4.35434 9.94067 4.25389C9.92698 4.15344 9.90416 4.0622 9.87219 3.97549C9.84022 3.89333 9.79917 3.81117 9.74437 3.73815C9.62116 3.56014 9.47052 3.42779 9.30166 3.34562C9.12819 3.26346 8.92281 3.22241 8.68093 3.22241H7.41211V6.74594H8.68093C8.92281 6.74594 9.12819 6.70489 9.30166 6.62272C9.47052 6.54056 9.62116 6.40821 9.74437 6.2302C9.79917 6.15718 9.84022 6.07502 9.87219 5.99286C9.90416 5.90615 9.92698 5.81485 9.94067 5.71446C9.95435 5.61407 9.95889 5.50448 9.96349 5.38127C9.96804 5.2626 9.96803 5.13024 9.96803 4.9842C9.96803 4.83817 9.96804 4.70575 9.96349 4.58708ZM9.27429 5.34022C9.27429 5.44521 9.26515 5.52737 9.256 5.60039C9.24686 5.66887 9.23318 5.73275 9.21495 5.7784C9.19673 5.82859 9.1693 5.87424 9.13739 5.91529C9.02326 6.06133 8.84986 6.12981 8.62165 6.12981H8.09677V3.834H8.62165C8.84986 3.834 9.02332 3.90702 9.13739 4.05305C9.16936 4.09411 9.19673 4.13522 9.21495 4.18541C9.23318 4.2356 9.24692 4.29494 9.256 4.36796C9.26515 4.43644 9.27429 4.52314 9.27429 4.62353C9.27883 4.72397 9.27883 4.84719 9.27883 4.98408C9.27889 5.1211 9.27889 5.23977 9.27429 5.34022Z" fill="#B12A27"/>
<path d="M12.9077 3.834V3.22241H10.5845V6.74594H11.2737V5.31739H12.6658V4.70121H11.2737V3.834H12.9077Z" fill="#B12A27"/>
<path d="M6.66828 3.89812C6.61349 3.76576 6.54047 3.64709 6.44008 3.5467C6.33969 3.44632 6.21642 3.36415 6.07492 3.30936C5.92888 3.25002 5.76456 3.22266 5.58201 3.22266H4.21729V6.74618H4.90649V5.41796H5.58201C5.76456 5.41796 5.92888 5.3906 6.07492 5.33126C6.21642 5.27647 6.33963 5.19437 6.44008 5.09392C6.54053 4.99353 6.61355 4.8794 6.66828 4.7425C6.71848 4.61015 6.7459 4.46865 6.7459 4.32261C6.74584 4.17197 6.71848 4.03047 6.66828 3.89812ZM5.92428 4.66942C5.83298 4.75613 5.70522 4.80178 5.55004 4.80178H4.90649V3.83418H5.55004C5.70522 3.83418 5.83304 3.87983 5.92428 3.97108C6.01099 4.05778 6.05664 4.17645 6.05664 4.32249C6.0567 4.46405 6.01105 4.58272 5.92428 4.66942Z" fill="#B12A27"/>
<path opacity="0.08" d="M28.7861 7.13394V31H2.89355V25.4043L14.9977 13.3002L15.7143 12.5836L16.1114 12.1865L16.7732 11.5247L17.5582 10.7396L24.975 3.32288L28.7861 7.13394Z" fill="#040000"/>
<path d="M28.786 7.1346H21.6514V0L28.786 7.1346Z" fill="#771B1B"/>
<path d="M25.0891 22.4422C24.9385 22.1775 24.7331 21.9265 24.4775 21.6983C24.2676 21.5066 24.0211 21.3286 23.7427 21.1642C22.6199 20.5025 21.0179 20.183 18.8407 20.183H18.6217C18.503 20.0734 18.3798 19.9639 18.252 19.8498C17.4259 19.1058 16.7687 18.2979 16.2575 17.3988C17.2616 15.1852 17.7408 13.2135 17.6815 11.5338C17.6723 11.2508 17.6313 10.9861 17.5582 10.7396C17.4487 10.3426 17.2662 9.9911 17.0105 9.70356C17.006 9.69902 17.006 9.69902 17.0014 9.69442C16.5952 9.23801 16.0293 8.97784 15.4541 8.97784C14.8744 8.97784 14.3405 9.22887 13.9525 9.68988C13.5691 10.1463 13.3637 10.7716 13.3546 11.5064C13.3409 12.6292 13.4322 13.6926 13.6239 14.6739C13.6421 14.7515 13.6559 14.8291 13.6741 14.9067C13.8658 15.7967 14.1488 16.641 14.5139 17.4261C14.0849 18.2978 13.6513 19.0509 13.35 19.5621C13.1218 19.9501 12.8708 20.3563 12.6106 20.7625C11.4376 20.9725 10.4426 21.2281 9.57544 21.5476C8.40247 21.972 7.46223 22.5197 6.78671 23.1724C6.34853 23.5923 6.05185 24.0396 5.90582 24.5051C5.75063 24.9844 5.75978 25.4636 5.93318 25.8926C6.09291 26.2897 6.38044 26.6229 6.76389 26.8511C6.85519 26.9059 6.95104 26.9515 7.05142 26.9926C7.34356 27.1113 7.66301 27.1751 7.9962 27.1751C8.76756 27.1751 9.5617 26.842 10.2326 26.2441C11.4832 25.1258 12.7749 23.3276 13.5371 22.191C14.1624 22.0952 14.8424 22.013 15.6092 21.9309C16.513 21.8396 17.3117 21.7848 18.0374 21.7574C18.2611 21.9582 18.4756 22.1499 18.681 22.3325C19.822 23.3503 20.6892 24.0851 21.4742 24.6009C21.4742 24.6054 21.4788 24.6054 21.4834 24.6054C21.7937 24.8108 22.0904 24.9797 22.3871 25.1166C22.7203 25.2718 23.058 25.354 23.4049 25.354C23.8431 25.354 24.2538 25.2216 24.5962 24.9797C24.943 24.7287 25.1941 24.3681 25.3082 23.9619C25.4405 23.4737 25.363 22.9306 25.0891 22.4422ZM14.9977 13.3002C14.9338 12.7342 14.9064 12.1454 14.9156 11.5247C14.9247 10.9359 15.1392 10.5388 15.4541 10.5388C15.6915 10.5388 15.9425 10.7533 16.0566 11.1641C16.0885 11.2873 16.1114 11.4288 16.1159 11.5885C16.125 11.7802 16.1204 11.981 16.1114 12.1864C16.084 12.7661 15.9835 13.3822 15.8101 14.044C15.7051 14.4685 15.5682 14.9113 15.3994 15.3722C15.2077 14.7242 15.0707 14.035 14.9977 13.3002ZM7.38467 25.313C7.30705 25.1213 7.39381 24.7516 7.8685 24.2952C8.59422 23.6015 9.73068 23.0538 11.3145 22.6384C11.0132 23.0492 10.7166 23.4235 10.429 23.7658C9.99085 24.2952 9.57096 24.7425 9.19212 25.0802C8.86807 25.3723 8.51206 25.5549 8.17433 25.6006C8.11499 25.6097 8.05565 25.6142 7.99632 25.6142C7.69958 25.6143 7.45769 25.4956 7.38467 25.313ZM14.6782 20.4613L14.7102 20.4112L14.66 20.4203C14.6691 20.3975 14.6828 20.3746 14.6965 20.3564C14.8882 20.0324 15.1301 19.617 15.3902 19.1378L15.4131 19.188L15.4724 19.0648C15.6641 19.3386 15.8741 19.6079 16.0931 19.868C16.1981 19.9913 16.3076 20.1099 16.4172 20.2286L16.3442 20.2331L16.408 20.2925C16.2209 20.3062 16.0247 20.3244 15.8284 20.3427C15.7051 20.3564 15.5773 20.3655 15.4495 20.3792C15.1849 20.4066 14.9247 20.434 14.6782 20.4613ZM22.3597 23.3094C21.8166 22.9625 21.2096 22.4741 20.461 21.8214C21.5245 21.9309 22.3597 22.1637 22.9531 22.5106C23.2133 22.6613 23.4095 22.8164 23.5418 22.967C23.7609 23.1998 23.8385 23.4097 23.7974 23.5512C23.7609 23.6927 23.6012 23.7886 23.4049 23.7886C23.2908 23.7886 23.1721 23.7612 23.0489 23.7019C22.8389 23.6015 22.6198 23.4782 22.3871 23.3276C22.378 23.3276 22.3689 23.3185 22.3597 23.3094Z" fill="#F2F2F2"/>
</g>
<defs>
<clipPath id="clip0_56_240">
<rect width="31" height="31" fill="white"/>
</clipPath>
</defs>
</svg>
